<svg width="18" height="23" viewBox="0 0 18 23" fill="none" xmlns="http://www.w3.org/2000/svg">
    <path d="M8.99726 0C7.21788 0.00093786 5.4787 0.52919 3.99938 1.51803C2.52007 2.50687 1.36698 3.91194 0.685786 5.55577C0.00458795 7.19959 -0.174168 9.00842 0.172096 10.7538C0.51836 12.4991 1.37411 14.1027 2.63126 15.362C4.26126 16.992 8.09726 19.35 8.32426 21.827C8.35826 22.197 8.62726 22.5 8.99726 22.5C9.36726 22.5 9.63726 22.197 9.67026 21.827C9.89726 19.35 13.7303 16.996 15.3593 15.367C16.6179 14.1082 17.4751 12.5046 17.8224 10.7587C18.1698 9.01289 17.9918 7.20326 17.3109 5.55857C16.63 3.91388 15.4768 2.50799 13.997 1.5186C12.5172 0.529208 10.7773 0.000741466 8.99726 0ZM8.99726 12.079C8.59292 12.079 8.19254 11.9994 7.81898 11.8446C7.44542 11.6899 7.10599 11.4631 6.82008 11.1772C6.53417 10.8913 6.30737 10.5518 6.15263 10.1783C5.9979 9.80472 5.91826 9.40434 5.91826 9C5.91826 8.59566 5.9979 8.19528 6.15263 7.82172C6.30737 7.44816 6.53417 7.10873 6.82008 6.82282C7.10599 6.53691 7.44542 6.31011 7.81898 6.15538C8.19254 6.00064 8.59292 5.921 8.99726 5.921C9.81386 5.921 10.597 6.24539 11.1744 6.82282C11.7519 7.40024 12.0763 8.1834 12.0763 9C12.0763 9.8166 11.7519 10.5998 11.1744 11.1772C10.597 11.7546 9.81386 12.079 8.99726 12.079Z"
          fill="#A6FF16"/>
</svg>
