<svg width="134" height="12" viewBox="0 0 134 12" fill="none" xmlns="http://www.w3.org/2000/svg">
    <path d="M0 7.97449H3.65724C3.69856 8.2398 3.8277 8.47449 4.04466 8.67857C4.27194 8.87245 4.57671 9.02551 4.95897 9.13775C5.34122 9.2398 5.79063 9.29082 6.30719 9.29082C7.02004 9.29082 7.57276 9.20918 7.96534 9.04592C8.36826 8.88265 8.56972 8.63265 8.56972 8.29592C8.56972 8.06122 8.45607 7.87245 8.22879 7.72959C8.0015 7.57653 7.55209 7.47449 6.88057 7.42347L4.83499 7.2551C3.16134 7.13265 1.94743 6.77551 1.19325 6.18367C0.449406 5.58163 0.0774838 4.77551 0.0774838 3.76531C0.0774838 2.93878 0.320267 2.25 0.805832 1.69898C1.2914 1.13776 1.96809 0.714286 2.83591 0.428571C3.70373 0.142857 4.72652 0 5.90427 0C7.0407 0 8.04799 0.158163 8.92614 0.474489C9.81462 0.790816 10.5171 1.2398 11.0337 1.82143C11.5606 2.39286 11.8499 3.06122 11.9015 3.82653H8.24428C8.20296 3.60204 8.08415 3.40816 7.88786 3.2449C7.7019 3.07143 7.43328 2.93878 7.08202 2.84694C6.73076 2.7551 6.31235 2.70918 5.82679 2.70918C5.18625 2.70918 4.67486 2.78571 4.29261 2.93878C3.92068 3.09184 3.73472 3.32143 3.73472 3.62755C3.73472 3.85204 3.8432 4.03571 4.06015 4.17857C4.28744 4.32143 4.70069 4.41837 5.2999 4.46939L7.54693 4.65306C8.66269 4.73469 9.56151 4.90816 10.2434 5.17347C10.9356 5.42857 11.4366 5.78061 11.7466 6.22959C12.0565 6.66837 12.2115 7.22449 12.2115 7.89796C12.2115 8.71429 11.9635 9.43367 11.4676 10.0561C10.9717 10.6684 10.2744 11.148 9.37555 11.4949C8.48707 11.8316 7.44362 12 6.2452 12C5.01579 12 3.93618 11.8316 3.00637 11.4949C2.07657 11.1582 1.34822 10.6888 0.821329 10.0867C0.294439 9.47449 0.0206624 8.77041 0 7.97449Z" fill="white"/>
    <path d="M31.186 0.260203V11.7398H27.7458V1.57653L28.4586 1.65306L24.259 11.7398H20.6637L16.4486 1.68367L17.1615 1.59184V11.7398H13.7367V0.260203H19.3L23.1277 9.85714H21.8105L25.6072 0.260203H31.186Z" fill="white"/>
    <path d="M36.6391 6.53571C36.6391 7.01531 36.7269 7.42347 36.9025 7.7602C37.0782 8.09694 37.3416 8.36225 37.6929 8.55612C38.0441 8.7398 38.4832 8.83163 39.0101 8.83163C39.5576 8.83163 40.0071 8.7398 40.3583 8.55612C40.7096 8.37245 40.9679 8.11225 41.1332 7.77551C41.3088 7.42857 41.3966 7.01531 41.3966 6.53571V0.260203H45.0073V6.73469C45.0073 7.78571 44.7594 8.70918 44.2635 9.5051C43.7676 10.2908 43.0703 10.9031 42.1714 11.3418C41.2726 11.7806 40.2188 12 39.0101 12C37.822 12 36.7786 11.7806 35.8797 11.3418C34.9809 10.9031 34.2784 10.2908 33.7722 9.5051C33.2763 8.70918 33.0283 7.78571 33.0283 6.73469V0.260203H36.6391V6.53571Z" fill="white"/>
    <path d="M46.5228 11.7398V9.18367L53.8062 2.32653L56.4872 3.01531H46.5847V0.244898H57.8509V2.80102L50.5829 9.67347L48.3049 8.98469H57.8974V11.7398H46.5228Z" fill="white"/>
    <path d="M59.5762 0.260203H63.187V11.7398H59.5762V0.260203Z" fill="white"/>
    <path d="M70.7894 0.260203C72.181 0.260203 73.3973 0.5 74.4384 0.979592C75.4898 1.44898 76.3041 2.11225 76.8813 2.96939C77.4689 3.82653 77.7627 4.83673 77.7627 6C77.7627 7.15306 77.4689 8.16327 76.8813 9.03061C76.3041 9.88776 75.4898 10.5561 74.4384 11.0357C73.3973 11.5051 72.181 11.7398 70.7894 11.7398H64.8211V0.260203H70.7894ZM68.3928 10.1939L66.7384 8.57143H71.0677C71.6965 8.57143 72.2376 8.46939 72.6912 8.26531C73.1551 8.05102 73.5107 7.75 73.7581 7.36225C74.0054 6.97449 74.1291 6.52041 74.1291 6C74.1291 5.46939 74.0054 5.01531 73.7581 4.63776C73.5107 4.25 73.1551 3.95408 72.6912 3.75C72.2376 3.53571 71.6965 3.42857 71.0677 3.42857H66.7384L68.3928 1.80612V10.1939Z" fill="#A6FF16"/>
    <path d="M81.0513 9.67347V6.82653H88.9987V9.67347H81.0513ZM87.468 0.260203L92.6631 11.7398H88.8131L84.6075 1.80612H85.5816L81.3606 11.7398H77.526L82.7057 0.260203H87.468Z" fill="#A6FF16"/>
    <path d="M104.392 9.19898L103.356 9.41327V0.260203H106.85V11.7398H102.335L96.1043 2.58673L97.1248 2.37245V11.7398H93.6459V0.260203H98.2999L104.392 9.19898Z" fill="#A6FF16"/>
    <path d="M121.963 6.85714C121.839 7.87755 121.478 8.77551 120.88 9.55102C120.293 10.3265 119.509 10.9286 118.53 11.3571C117.561 11.7857 116.448 12 115.19 12C113.83 12 112.639 11.75 111.619 11.25C110.598 10.75 109.805 10.051 109.238 9.15306C108.671 8.2551 108.387 7.20408 108.387 6C108.387 4.79592 108.671 3.7449 109.238 2.84694C109.805 1.94898 110.598 1.25 111.619 0.75C112.639 0.25 113.83 0 115.19 0C116.448 0 117.561 0.214286 118.53 0.642857C119.509 1.07143 120.293 1.67347 120.88 2.44898C121.478 3.21429 121.839 4.11225 121.963 5.14286H118.345C118.241 4.70408 118.051 4.33163 117.772 4.02551C117.504 3.70918 117.154 3.46939 116.721 3.30612C116.288 3.13265 115.778 3.04592 115.19 3.04592C114.531 3.04592 113.964 3.16327 113.49 3.39796C113.015 3.63265 112.649 3.97449 112.392 4.42347C112.134 4.86224 112.005 5.38775 112.005 6C112.005 6.61224 112.134 7.13776 112.392 7.57653C112.649 8.01531 113.015 8.35714 113.49 8.60204C113.964 8.83673 114.531 8.95408 115.19 8.95408C115.778 8.95408 116.288 8.87755 116.721 8.72449C117.154 8.56122 117.504 8.32143 117.772 8.0051C118.051 7.68878 118.241 7.30612 118.345 6.85714H121.963Z" fill="#A6FF16"/>
    <path d="M133.459 4.7449V7.2551H124.847V4.7449H133.459ZM127.305 6L126.578 10.4388L125.171 8.89286H134V11.7398H123.007L123.873 6L123.007 0.260203H133.923V3.10714H125.171L126.578 1.56122L127.305 6Z" fill="#A6FF16"/>
</svg>
