
<svg width="31" height="31" viewBox="0 0 31 31" fill="none" xmlns="http://www.w3.org/2000/svg">
<path d="M10.9214 15.0006C10.9214 15.2771 10.7002 15.4982 10.4238 15.4982H8.55651C8.2801 15.4982 8.05897 15.2771 8.05897 15.0006V13.1333C8.05897 12.8569 8.2801 12.6358 8.55651 12.6358H10.4238C10.7002 12.6358 10.9214 12.8569 10.9214 13.1333V15.0006ZM14.8219 13.1395C14.8219 12.863 14.6007 12.6419 14.3243 12.6419H12.457C12.1806 12.6419 11.9595 12.863 11.9595 13.1395V15.0068C11.9595 15.2832 12.1806 15.5043 12.457 15.5043H14.3243C14.6007 15.5043 14.8219 15.2832 14.8219 15.0068V13.1395ZM18.7224 13.1395C18.7224 12.863 18.5012 12.6419 18.2248 12.6419H16.3575C16.0811 12.6419 15.86 12.863 15.86 13.1395V15.0068C15.86 15.2832 16.0811 15.5043 16.3575 15.5043H18.2248C18.5012 15.5043 18.7224 15.2832 18.7224 15.0068V13.1395ZM10.9214 16.9355C10.9214 16.6591 10.7002 16.438 10.4238 16.438H8.55651C8.2801 16.438 8.05897 16.6591 8.05897 16.9355V18.8029C8.05897 19.0793 8.2801 19.3004 8.55651 19.3004H10.4238C10.7002 19.3004 10.9214 19.0793 10.9214 18.8029V16.9355ZM14.8219 16.9355C14.8219 16.6591 14.6007 16.438 14.3243 16.438H12.457C12.1806 16.438 11.9595 16.6591 11.9595 16.9355V18.8029C11.9595 19.0793 12.1806 19.3004 12.457 19.3004H14.3243C14.6007 19.3004 14.8219 19.0793 14.8219 18.8029V16.9355ZM18.2248 16.438H16.3575C16.0811 16.438 15.86 16.6591 15.86 16.9355V18.8029C15.86 19.0793 16.0811 19.3004 16.3575 19.3004H18.2248C18.5012 19.3004 18.7224 19.0793 18.7224 18.8029V16.9355C18.7224 16.6591 18.5012 16.438 18.2248 16.438ZM6.5172 20.2341H4.65602C4.37961 20.2341 4.15848 20.4552 4.15848 20.7316V22.5989C4.15848 22.8753 4.37961 23.0965 4.65602 23.0965H6.52334C6.79975 23.0965 7.02088 22.8753 7.02088 22.5989V20.7316C7.02088 20.4552 6.79361 20.2341 6.5172 20.2341ZM7.02088 16.9355C7.02088 16.6591 6.79975 16.438 6.52334 16.438H4.65602C4.37961 16.438 4.15848 16.6591 4.15848 16.9355V18.8029C4.15848 19.0793 4.37961 19.3004 4.65602 19.3004H6.52334C6.79975 19.3004 7.02088 19.0793 7.02088 18.8029V16.9355V16.9355ZM14.3243 20.2341H12.457C12.1806 20.2341 11.9595 20.4552 11.9595 20.7316V22.5989C11.9595 22.8753 12.1806 23.0965 12.457 23.0965H14.3243C14.6007 23.0965 14.8219 22.8753 14.8219 22.5989V20.7316C14.8219 20.4552 14.6007 20.2341 14.3243 20.2341ZM10.4238 20.2341H8.55651C8.2801 20.2341 8.05897 20.4552 8.05897 20.7316V22.5989C8.05897 22.8753 8.2801 23.0965 8.55651 23.0965H10.4238C10.7002 23.0965 10.9214 22.8753 10.9214 22.5989V20.7316C10.9214 20.4552 10.7002 20.2341 10.4238 20.2341ZM22.1253 15.5043C22.4017 15.5043 22.6228 15.2832 22.6228 15.0068V13.1395C22.6228 12.863 22.4017 12.6419 22.1253 12.6419H20.258C19.9816 12.6419 19.7604 12.863 19.7604 13.1395V15.0068C19.7604 15.2832 19.9816 15.5043 20.258 15.5043H22.1253ZM2.92998 27.1505H17.1007C16.8735 26.438 16.7445 25.6763 16.7383 24.8901H2.92998C2.56143 24.8901 2.26658 24.5891 2.26658 24.2267V10.879H24.484V17.0891C25.2703 17.0952 26.0319 17.2119 26.7445 17.4392V6.20457C26.7445 4.58909 25.43 3.2746 23.8145 3.2746H20.5344V1.4687C20.5344 0.879018 20.0553 0.399902 19.4656 0.399902H17.801C17.2113 0.399902 16.7322 0.879018 16.7322 1.4687V3.28074H10.0123V1.4687C10.0123 0.879018 9.53317 0.399902 8.94349 0.399902H7.27887C6.68919 0.399902 6.21007 0.879018 6.21007 1.4687V3.28074H2.92998C1.3145 3.28074 0 4.59523 0 6.21071V24.2267C0 25.836 1.3145 27.1505 2.92998 27.1505ZM30.0491 24.8041C30.0491 27.8938 27.543 30.3999 24.4533 30.3999C21.3636 30.3999 18.8575 27.8938 18.8575 24.8041C18.8575 21.7144 21.3636 19.2083 24.4533 19.2083C27.543 19.2083 30.0491 21.7144 30.0491 24.8041ZM27.2789 23.3544C27.2789 23.1763 27.2113 23.0043 27.0823 22.8815C26.8182 22.6173 26.3943 22.6173 26.1302 22.8815L23.6978 25.3139L22.7641 24.3802C22.5 24.1161 22.0762 24.1161 21.812 24.3802C21.683 24.5092 21.6155 24.6751 21.6155 24.8532C21.6155 25.0314 21.683 25.2033 21.812 25.3262L23.2187 26.7328C23.4828 26.997 23.9066 26.997 24.1708 26.7328L27.0762 23.8274C27.2113 23.7046 27.2789 23.5326 27.2789 23.3544Z" fill="#f78ca0"/>
</svg>
