
<svg width="20" height="20" viewBox="0 0 20 20" fill="none" xmlns="http://www.w3.org/2000/svg">
<path d="M10 2.6087C14.0757 2.6087 17.3913 5.92478 17.3913 10C17.3913 14.0761 14.0757 17.3913 10 17.3913C5.92435 17.3913 2.6087 14.0761 2.6087 10C2.6087 5.92478 5.92435 2.6087 10 2.6087ZM10 0C4.47739 0 0 4.47739 0 10C0 15.523 4.47739 20 10 20C15.5226 20 20 15.523 20 10C20 4.47739 15.5226 0 10 0Z" fill="#FBAB7E"/>
<path d="M9.08134 14.1226C8.81656 14.387 8.45656 14.5361 8.08221 14.5361C7.70786 14.5361 7.34786 14.387 7.08308 14.1226L3.98656 11.0257C3.43482 10.4739 3.43482 9.57914 3.98656 9.0274C4.53873 8.47523 5.43308 8.47523 5.98525 9.0274L7.83004 10.8717C7.9696 11.0109 8.19525 11.0109 8.33482 10.8717L13.33 5.87653C13.8826 5.32436 14.7766 5.32436 15.3287 5.87653C15.8809 6.42871 15.8809 7.32305 15.3287 7.87523L9.08134 14.1226Z" fill="#FBAB7E"/>
</svg>
