
<svg width="31" height="31" viewBox="0 0 31 31" fill="none" xmlns="http://www.w3.org/2000/svg">
<path d="M4.71492 10.9501C4.71492 7.50211 7.52301 4.70791 10.9571 4.70791C14.2831 4.70791 17.0147 7.32578 17.1902 10.6136C17.6813 10.1302 18.3545 9.83131 19.0964 9.83131H21.9072V8.72167C21.9072 8.30526 21.5697 7.96778 21.1534 7.96778H19.3591C19.256 7.67727 19.1385 7.39357 19.007 7.11787L20.2757 5.84912C20.5702 5.55468 20.5702 5.07735 20.2757 4.78291L17.1243 1.63144C16.8298 1.337 16.3525 1.337 16.0581 1.63144L14.7894 2.90019C14.5136 2.76866 14.23 2.65121 13.9395 2.54804V0.753886C13.9395 0.337542 13.6019 0 13.1856 0H8.72875C8.3124 0 7.97486 0.337542 7.97486 0.753886V2.54811C7.68435 2.65121 7.40072 2.76873 7.12495 2.90026L5.85613 1.63151C5.56169 1.33707 5.08436 1.33707 4.78999 1.63151L1.63852 4.78291C1.34408 5.07735 1.34408 5.55468 1.63852 5.84912L2.90727 7.11787C2.77574 7.39357 2.65829 7.67727 2.55512 7.96778H0.760966C0.344622 7.96778 0.00708008 8.30532 0.00708008 8.72167V13.1784C0.00708008 13.5948 0.344622 13.9323 0.760966 13.9323H2.55519C2.65829 14.2228 2.77581 14.5065 2.90734 14.7822L1.63852 16.0511C1.34408 16.3456 1.34408 16.8229 1.63852 17.1173L4.78999 20.2687C5.08443 20.5632 5.56176 20.5632 5.85613 20.2687L7.12488 19C7.40065 19.1315 7.68428 19.249 7.9748 19.3521V21.1463C7.9748 21.5627 8.31234 21.9002 8.72868 21.9002H9.70646V19.2212C9.70646 18.4106 10.0636 17.6823 10.6282 17.1837C7.33417 17.0117 4.71492 14.2756 4.71492 10.9501Z" fill="#f78ca0"/>
<path d="M14.1996 11.8596C14.4938 11.5654 14.8436 11.3473 15.2252 11.2144C15.3768 8.73013 13.4036 6.67297 10.957 6.67297C8.59488 6.67297 6.67993 8.58792 6.67993 10.9501C6.67993 13.3677 8.68881 15.3246 11.1375 15.2226C11.4047 14.5654 11.5283 14.5309 14.1996 11.8596Z" fill="#f78ca0"/>
<path d="M29.2531 18.4673H28.0153C27.9185 18.189 27.8063 17.9179 27.679 17.6555L28.5542 16.7803C28.8487 16.4858 28.8487 16.0085 28.5542 15.7141L26.0893 13.2491C25.9421 13.1019 25.7492 13.0283 25.5563 13.0283C25.3634 13.0283 25.1704 13.1019 25.0232 13.2491L24.148 14.1243C23.8855 13.9971 23.6145 13.8849 23.3361 13.788V12.5503C23.3361 12.1339 22.9986 11.7964 22.5822 11.7964H19.0963C18.68 11.7964 18.3424 12.1339 18.3424 12.5503V13.788C18.0642 13.8849 17.7931 13.9971 17.5306 14.1243L16.6554 13.2491C16.5082 13.1019 16.3152 13.0283 16.1223 13.0283C15.9294 13.0283 15.7364 13.1019 15.5892 13.2491L13.1243 15.7141C12.8299 16.0085 12.8299 16.4858 13.1243 16.7803L13.9995 17.6555C13.8723 17.9179 13.76 18.189 13.6632 18.4673H12.4255C12.0092 18.4673 11.6716 18.8048 11.6716 19.2211V22.7071C11.6716 23.1234 12.0092 23.461 12.4255 23.461H13.6633C13.7601 23.7392 13.8723 24.0103 13.9996 24.2727L13.1244 25.1479C12.8299 25.4424 12.8299 25.9197 13.1244 26.2142L15.5893 28.6791C15.7365 28.8263 15.9295 28.8999 16.1224 28.8999C16.3153 28.8999 16.5083 28.8263 16.6554 28.6791L17.5306 27.8039C17.7931 27.9311 18.0642 28.0434 18.3425 28.1402V29.3779C18.3425 29.7943 18.68 30.1318 19.0964 30.1318H22.5823C22.9987 30.1318 23.3362 29.7943 23.3362 29.3779V28.1402C23.6145 28.0434 23.8855 27.9311 24.1481 27.8039L25.0233 28.6791C25.1704 28.8263 25.3634 28.8999 25.5563 28.8999C25.7492 28.8999 25.9422 28.8263 26.0894 28.6791L28.5543 26.2142C28.8488 25.9198 28.8488 25.4424 28.5543 25.148L27.6791 24.2728C27.8063 24.0103 27.9185 23.7393 28.0154 23.461H29.2532C29.6695 23.461 30.0071 23.1235 30.0071 22.7071V19.2212C30.007 18.8048 29.6695 18.4673 29.2531 18.4673ZM20.8393 26.5101C17.7813 26.5101 15.2933 24.0222 15.2933 20.9641C15.2933 17.9059 17.7812 15.418 20.8393 15.418C23.8974 15.418 26.3853 17.9059 26.3853 20.9641C26.3853 24.0222 23.8974 26.5101 20.8393 26.5101Z" fill="#f78ca0"/>
<path d="M20.8392 24.5451C22.8169 24.5451 24.4201 22.9419 24.4201 20.9642C24.4201 18.9865 22.8169 17.3833 20.8392 17.3833C18.8615 17.3833 17.2583 18.9865 17.2583 20.9642C17.2583 22.9419 18.8615 24.5451 20.8392 24.5451Z" fill="#f78ca0"/>
</svg>
